<?xml version="1.0" encoding="utf-8"?>
<!-- Generator: Adobe Illustrator 28.2.0, SVG Export Plug-In . SVG Version: 6.00 Build 0)  -->
<svg version="1.1" xmlns="http://www.w3.org/2000/svg" xmlns:xlink="http://www.w3.org/1999/xlink" x="0px" y="0px" width="512px"
	 height="512px" viewBox="0 0 512 512" enable-background="new 0 0 512 512" xml:space="preserve">
<g id="layer1">
	<path fill="#CD2D59" d="M442.1,511.9h-372c-38.7,0-70-31.3-70-70v-372c0-38.7,31.3-70,70-70h372c38.7,0,70,31.3,70,70v372
		C512.1,480.6,480.7,511.9,442.1,511.9z"/>
</g>
<g id="layer3">
	<polygon fill="#FFFFFF" points="256.3,46.9 84.3,464.2 148.3,464.2 255.9,193.1 366.5,464.8 430.4,464.9 	"/>
</g>
<g id="layer4">
	<polyline fill="#FFFFFF" points="464.1,158 464.1,210.1 332.4,319.9 152.8,364.4 48.4,375.1 48.4,334.8 145.9,324.8 313.8,283.3 
		464.1,158 	"/>
</g>
</svg>
